<svg width="16" height="21" viewBox="0 0 16 21" fill="none" xmlns="http://www.w3.org/2000/svg">
<path d="M13.7611 13.1361L12.5811 12.7896L10.0137 11.1127V10.7285C10.757 10.1678 11.2674 9.31078 11.3623 8.32842C11.7351 8.26841 12.0207 7.94447 12.0207 7.55506V6.49848C12.0207 6.49439 12.0203 6.49039 12.0201 6.4863V5.14787C12.1686 5.04153 12.2629 4.8683 12.2629 4.67399V3.44913L14.0347 3.14733C14.3259 3.09774 14.5353 2.86647 14.5558 2.57182C14.5763 2.27717 14.4011 2.01908 14.1196 1.92958L8.14663 0.0297379C8.02198 -0.00992571 7.89034 -0.00988644 7.76578 0.0296986L1.79272 1.92958C1.51126 2.01908 1.33596 2.27717 1.35649 2.57178C1.36953 2.75899 1.45899 2.92039 1.59707 3.02611V4.62785H1.58246C1.2461 4.62785 0.972465 4.90149 0.972465 5.23784V6.03292L0.578696 8.34409C0.510639 8.74383 0.818523 9.10971 1.22498 9.10971H2.55818C2.96373 9.10971 3.27268 8.74469 3.20446 8.34405L2.81069 6.03292V5.23784C2.81069 4.90149 2.53706 4.62785 2.2007 4.62785H2.18613V3.19984L3.6507 3.44929V4.67399C3.6507 4.86748 3.74452 5.04043 3.89233 5.14693L3.89288 6.49859V7.55506C3.89288 7.94451 4.1785 8.26841 4.5513 8.32842C4.64614 9.31023 5.15603 10.1668 5.89864 10.7276V11.1136L3.33182 12.7902L2.15271 13.1363C0.890978 13.5066 7.84986e-05 14.665 7.84986e-05 16.0115V16.8893C7.84986e-05 17.0519 0.131911 17.1838 0.29461 17.1838C0.457309 17.1838 0.589142 17.052 0.589142 16.8893V16.0115C0.589142 14.9502 1.3003 14.0003 2.31863 13.7015L3.41727 13.379L7.80642 15.9871C7.89553 16.04 8.01342 16.0428 8.10732 15.9871L12.4967 13.3788L13.5953 13.7013C14.6134 14.0002 15.3246 14.9501 15.3246 16.0113V18.856C15.3246 19.2209 15.0277 19.5177 14.6629 19.5177H13.3647V18.2482C13.3647 18.0855 13.2329 17.9536 13.0702 17.9536C12.9075 17.9536 12.7756 18.0855 12.7756 18.2482V19.5177H3.13668V18.2482C3.13668 18.0855 3.00485 17.9536 2.84215 17.9536C2.67945 17.9536 2.54762 18.0855 2.54762 18.2482V19.5177H1.25078C0.885912 19.5177 0.589063 19.2209 0.589063 18.856V18.2661C0.589063 18.1034 0.457231 17.9715 0.294532 17.9715C0.131832 17.9715 0 18.1034 0 18.2661V18.856C0 19.5456 0.561063 20.1067 1.25074 20.1067H14.6628C15.3525 20.1067 15.9135 19.5456 15.9135 18.856V16.0113C15.9135 14.6965 15.053 13.5154 13.7611 13.1361ZM2.55814 8.52065H1.22498C1.18378 8.52065 1.15236 8.48385 1.15935 8.44297L1.51554 6.35235H2.26758L2.62377 8.44293C2.63072 8.48374 2.59954 8.52065 2.55814 8.52065ZM2.22163 5.23784V5.76332H1.56145V5.23784C1.56145 5.22626 1.57083 5.21687 1.58242 5.21687H2.20062C2.21225 5.21683 2.22163 5.22626 2.22163 5.23784ZM6.90343 14.6548L7.02065 14.8349L4.01372 13.0482L5.92232 11.8016C6.00888 12.8171 6.34362 13.7944 6.90343 14.6548ZM6.90139 13.3834C7.59463 13.4819 8.31855 13.4819 9.01219 13.3834C8.87816 13.7132 8.71299 14.0314 8.51644 14.3336L7.95679 15.1938L7.39714 14.3336C7.20059 14.0314 7.03542 13.7132 6.90139 13.3834ZM9.01015 14.6548C9.56996 13.7944 9.9047 12.8171 9.99122 11.8016L11.8998 13.0482L8.89293 14.8349L9.01015 14.6548ZM10.733 5.25756H11.4311V6.2039H11.0846C10.8907 6.2039 10.733 6.04619 10.733 5.85231V5.25756H10.733ZM1.97124 2.49092L7.94438 0.590997C7.95204 0.588562 7.96028 0.588523 7.96806 0.591036L13.9412 2.49092C13.9535 2.49485 13.9704 2.50019 13.9683 2.53086C13.9661 2.56149 13.9486 2.56444 13.9358 2.56664L11.961 2.90299L11.2195 2.81129C11.0582 2.79131 10.9111 2.90605 10.8911 3.06746C10.8712 3.2289 10.9859 3.37593 11.1473 3.39588L11.6739 3.46103V4.66853L4.23972 4.66826V3.46099L7.28742 3.08387C7.73134 3.02901 8.18138 3.02901 8.62498 3.08387L9.77849 3.22654C9.93989 3.24653 10.087 3.13182 10.1069 2.97042C10.1269 2.80898 10.0122 2.66195 9.85082 2.64196L8.69732 2.49929C8.20577 2.43846 7.70703 2.43846 7.21512 2.49929L3.95195 2.90307L1.9765 2.56664C1.9637 2.56444 1.94623 2.56149 1.94407 2.53086C1.94194 2.50019 1.95887 2.49481 1.97124 2.49092ZM4.48175 6.2039L4.48136 5.25756H5.18057V5.85235C5.18057 6.04619 5.02286 6.20394 4.82894 6.20394H4.48175V6.2039ZM5.12999 8.17703C5.11484 7.9372 4.9155 7.74933 4.67622 7.74933C4.56905 7.74933 4.48187 7.66215 4.48187 7.55502V6.79297H4.82894C5.34759 6.79297 5.7696 6.371 5.7696 5.85235V5.25756H10.1439V5.85235C10.1439 6.371 10.5659 6.79297 11.0846 6.79297H11.4317V7.55502C11.4317 7.66215 11.3445 7.74933 11.2373 7.74933C10.998 7.74933 10.7987 7.9372 10.7835 8.17707C10.6897 9.66422 9.44806 10.8292 7.95675 10.8292C6.46544 10.8292 5.22381 9.66422 5.12999 8.17703ZM7.95679 11.4182C8.48062 11.4182 8.9785 11.2984 9.42466 11.0855V11.2721C9.42466 11.7757 9.35672 12.2724 9.22591 12.7515C8.42549 12.9041 7.52057 12.9103 6.68767 12.7515C6.55686 12.2725 6.48892 11.7757 6.48892 11.2721C6.48892 11.2659 6.48806 11.2598 6.48767 11.2536C6.48759 11.2524 6.48771 11.2512 6.48763 11.25V11.0849C6.9341 11.2982 7.43245 11.4182 7.95679 11.4182Z" fill="#4C68FF"/>
</svg>
